<svg style="" width="58.437500" height="34.218750" version="1.1" xmlns="http://www.w3.org/2000/svg">
<path d="M59.218750 30.703125 L31.875000 0.703125 C31.614582 0.442707 31.328127 0.260417 31.015625 0.156250 C30.703123 0.052083 30.364585 -0.000000 30.000000 -0.000000 C29.635415 -0.000000 29.296877 0.052083 28.984375 0.156250 C28.671873 0.260417 28.385418 0.442707 28.125000 0.703125 L0.781250 30.703125 C0.260414 31.171877 0.000000 31.757809 0.000000 32.460938 C0.000000 33.164066 0.260414 33.749998 0.781250 34.218750 C1.250002 34.739586 1.835934 35.000000 2.539062 35.000000 C3.242191 35.000000 3.828123 34.739586 4.296875 34.218750 L30.000000 6.093750 L55.703125 34.218750 C56.171877 34.739586 56.757809 35.000000 57.460938 35.000000 C58.164066 35.000000 58.749998 34.739586 59.218750 34.218750 C59.739586 33.749998 60.000000 33.164066 60.000000 32.460938 C60.000000 31.757809 59.739586 31.171877 59.218750 30.703125 Z M70.000000 52.500000" style="fill:black"/>
</svg>